<svg height="194" viewBox="1113.54003906 168.43798828 146.06005859 193.56201172" width="147" xmlns="http://www.w3.org/2000/svg"><path d="m1113.54 168.44 146.06 106.01-46.19 27.6c-1.02.54-1.71 1.53-1.98 2.62-.28 1.08-.05 2.29.51 3.24l24.33 40.82-22.2 13.27-24.35-40.74q-.52-.87-1.29-1.39h-.01q-.22-.14-.43-.26-.03-.01-.05-.02-.51-.27-1.08-.38h-.03q-.03-.01-.09-.02h-.01q-.05-.01-.07-.02-.07 0-.12-.01c-.91-.11-1.89.08-2.76.6l-46.2 27.6-4.13-30.86-5.06-37.56zm15.29 23.32q-.17-.01-.36.02c-1.2.23-2.01 1.27-1.86 2.46l17.24 127.92c.12.92.75 1.61 1.59 1.83q.06.01.13.02l.01.01q.07 0 .15 0l.03.01q.07 0 .18 0 .17 0 .38 0c1.21-.23 2-1.28 1.86-2.47l-1.18-8.74-5.14-38.18-10.93-81c-.17-.97-.88-1.67-1.76-1.84q-.14-.03-.29-.04h-.02z" fill="#fff" fill-rule="evenodd"/></svg>