<svg width="100%" height="100%" viewBox="0 0 331 75" version="1.1" xmlns="http://www.w3.org/2000/svg" xmlns:xlink="http://www.w3.org/1999/xlink" xml:space="preserve" style="fill-rule:evenodd;clip-rule:evenodd;stroke-linejoin:round;stroke-miterlimit:1.41421;">
    <g transform="matrix(1,0,0,1,-84.5,-468.965)">
        <g transform="matrix(1,0,0,1,0,-11.9917)">
            <g id="Logo-Colour" transform="matrix(1,0,0,1,0,260.488)">
                <path d="M87.897,244.861C87.928,244.861 87.96,244.862 87.991,244.862C88.041,244.864 88.091,244.866 88.142,244.869C88.288,244.878 88.435,244.895 88.58,244.921C88.721,244.946 88.86,244.98 88.996,245.024C89.159,245.075 89.317,245.14 89.469,245.219C89.612,245.292 89.748,245.378 89.877,245.475C90.002,245.569 90.12,245.673 90.229,245.786C90.284,245.843 90.336,245.902 90.386,245.962C90.398,245.977 90.41,245.992 90.422,246.006C90.43,246.017 90.439,246.027 90.447,246.038C90.464,246.06 90.481,246.082 90.498,246.104C90.568,246.196 90.635,246.29 90.699,246.386C90.73,246.433 90.761,246.481 90.79,246.529C90.813,246.566 90.836,246.604 90.858,246.642C90.983,246.858 91.089,247.086 91.168,247.324C91.178,247.356 91.188,247.388 91.198,247.42C91.21,247.463 91.222,247.506 91.232,247.549C91.261,247.666 91.282,247.784 91.295,247.903C91.298,247.93 91.3,247.958 91.302,247.986C91.303,247.998 91.304,248.011 91.305,248.023C91.306,248.038 91.306,248.054 91.307,248.07C91.311,248.132 91.314,248.194 91.317,248.257L91.317,248.259C91.331,248.25 91.344,248.24 91.358,248.231C91.37,248.222 91.382,248.213 91.394,248.205C91.458,248.16 91.522,248.115 91.587,248.071C91.724,247.977 91.863,247.885 92.004,247.796C92.378,247.557 92.762,247.335 93.156,247.13C93.475,246.964 93.8,246.809 94.13,246.667C94.53,246.495 94.936,246.341 95.349,246.206C95.711,246.087 96.078,245.983 96.448,245.893C96.832,245.799 97.219,245.722 97.609,245.659C97.992,245.597 98.378,245.55 98.765,245.517C99.143,245.485 99.522,245.466 99.902,245.46C100.174,245.456 100.447,245.458 100.719,245.467C101.137,245.481 101.555,245.511 101.971,245.557C102.358,245.601 102.743,245.659 103.126,245.732C103.511,245.805 103.894,245.893 104.272,245.997C104.547,246.071 104.819,246.154 105.089,246.244C105.345,246.33 105.599,246.422 105.851,246.522C106.386,246.733 106.909,246.974 107.417,247.243C107.738,247.413 108.053,247.593 108.361,247.784C108.641,247.957 108.915,248.139 109.183,248.33C109.488,248.547 109.785,248.776 110.073,249.016C110.356,249.252 110.63,249.499 110.894,249.755C111.189,250.042 111.473,250.342 111.743,250.653C111.855,250.781 111.964,250.911 112.071,251.044C112.114,251.097 112.157,251.15 112.199,251.204L112.215,251.224C112.226,251.211 112.236,251.197 112.247,251.184C112.269,251.156 112.291,251.128 112.314,251.1C112.371,251.028 112.429,250.957 112.488,250.886C112.642,250.699 112.801,250.515 112.963,250.335C113.354,249.901 113.768,249.488 114.205,249.101C114.397,248.93 114.594,248.764 114.796,248.604C115.007,248.435 115.223,248.273 115.443,248.117C115.658,247.965 115.877,247.818 116.1,247.678C116.327,247.536 116.558,247.4 116.792,247.272C117.186,247.055 117.59,246.858 118.002,246.681C118.395,246.512 118.796,246.362 119.203,246.229C119.606,246.098 120.014,245.984 120.427,245.888C120.837,245.792 121.251,245.713 121.668,245.651C122.433,245.535 123.207,245.475 123.981,245.461C124.065,245.459 124.149,245.458 124.234,245.458C124.319,245.458 124.404,245.458 124.489,245.459C124.639,245.46 124.79,245.463 124.941,245.469C125.182,245.477 125.424,245.491 125.665,245.51C125.931,245.532 126.197,245.56 126.462,245.594C127.018,245.667 127.571,245.771 128.117,245.905C128.4,245.975 128.681,246.054 128.959,246.14C129.177,246.208 129.394,246.282 129.609,246.36C129.936,246.48 130.259,246.611 130.577,246.754C130.811,246.859 131.042,246.971 131.269,247.088C131.533,247.224 131.793,247.368 132.048,247.519C132.274,247.654 132.497,247.795 132.716,247.941C133.138,248.222 133.545,248.524 133.938,248.844C134.267,249.113 134.586,249.394 134.894,249.685C135.045,249.828 135.194,249.974 135.339,250.122C135.716,250.504 136.076,250.903 136.417,251.318C136.715,251.683 136.998,252.061 137.264,252.45C137.45,252.724 137.627,253.003 137.794,253.288C137.892,253.453 137.985,253.619 138.076,253.788C138.324,254.25 138.548,254.724 138.744,255.21C138.934,255.677 139.098,256.154 139.237,256.639C139.293,256.833 139.345,257.029 139.393,257.225C139.466,257.53 139.531,257.836 139.585,258.145C139.681,258.688 139.748,259.237 139.786,259.788C139.804,260.054 139.816,260.321 139.822,260.588C139.825,260.707 139.826,260.825 139.826,260.944C139.829,269.056 139.826,277.168 139.826,285.281C139.826,285.305 139.826,285.329 139.825,285.353C139.824,285.399 139.823,285.444 139.82,285.489C139.812,285.631 139.796,285.773 139.77,285.913C139.746,286.048 139.713,286.182 139.671,286.314C139.633,286.435 139.587,286.554 139.535,286.67C139.501,286.745 139.464,286.819 139.424,286.892C139.369,286.991 139.309,287.088 139.244,287.182C139.191,287.259 139.134,287.333 139.075,287.405C139.002,287.494 138.924,287.579 138.843,287.661C138.765,287.74 138.683,287.815 138.597,287.887C138.52,287.952 138.44,288.013 138.358,288.07C138.256,288.141 138.151,288.207 138.042,288.266C137.951,288.315 137.858,288.36 137.762,288.4C137.652,288.447 137.538,288.487 137.422,288.521C137.32,288.552 137.216,288.577 137.111,288.597C136.995,288.619 136.879,288.635 136.761,288.645C136.654,288.654 136.546,288.658 136.438,288.658C136.312,288.658 136.187,288.651 136.062,288.638C135.98,288.629 135.897,288.617 135.816,288.602C135.7,288.582 135.586,288.554 135.474,288.521C135.368,288.49 135.264,288.454 135.162,288.412C135.06,288.37 134.961,288.323 134.864,288.271C134.757,288.213 134.655,288.15 134.555,288.082C134.421,287.99 134.294,287.887 134.174,287.777C134.117,287.725 134.062,287.671 134.009,287.616C133.879,287.481 133.759,287.336 133.652,287.182C133.587,287.088 133.527,286.991 133.472,286.892C133.424,286.804 133.38,286.715 133.341,286.623C133.29,286.506 133.246,286.387 133.21,286.265C133.171,286.136 133.141,286.004 133.119,285.872C133.098,285.749 133.084,285.624 133.077,285.5C133.074,285.458 133.072,285.416 133.071,285.374C133.071,285.346 133.07,285.318 133.07,285.29C133.062,277.174 133.077,269.058 133.07,260.942C133.07,260.886 133.07,260.83 133.068,260.774C133.066,260.645 133.061,260.516 133.054,260.387C133.033,260.044 132.994,259.701 132.934,259.363C132.879,259.047 132.805,258.735 132.712,258.428C132.626,258.141 132.524,257.86 132.406,257.585C132.318,257.38 132.221,257.179 132.116,256.982C131.981,256.729 131.833,256.482 131.672,256.244C131.527,256.029 131.373,255.821 131.209,255.619C131.052,255.425 130.887,255.237 130.716,255.056C130.612,254.946 130.505,254.838 130.396,254.732C130.232,254.574 130.062,254.421 129.888,254.275C129.691,254.109 129.487,253.952 129.276,253.805C129.028,253.631 128.77,253.47 128.504,253.324C128.242,253.18 127.973,253.05 127.696,252.936C127.432,252.827 127.161,252.732 126.887,252.652C126.634,252.577 126.377,252.516 126.117,252.466C125.86,252.416 125.601,252.378 125.341,252.351C125.057,252.322 124.772,252.306 124.487,252.301C124.249,252.298 124.011,252.302 123.774,252.316C123.474,252.333 123.175,252.365 122.878,252.412C122.574,252.461 122.271,252.526 121.974,252.608C121.693,252.686 121.417,252.778 121.147,252.886C120.884,252.991 120.627,253.11 120.377,253.242C120.116,253.38 119.862,253.532 119.617,253.698C119.394,253.848 119.178,254.008 118.97,254.178C118.773,254.338 118.582,254.507 118.398,254.683C118.325,254.752 118.254,254.822 118.184,254.893C117.997,255.082 117.817,255.278 117.646,255.482C117.489,255.668 117.34,255.86 117.198,256.059C117.048,256.269 116.908,256.487 116.777,256.71C116.648,256.933 116.528,257.163 116.42,257.397C116.292,257.676 116.18,257.963 116.084,258.256C116.032,258.415 115.986,258.576 115.944,258.738C115.905,258.889 115.87,259.042 115.84,259.195C115.769,259.553 115.722,259.915 115.696,260.278C115.686,260.429 115.679,260.581 115.675,260.732C115.674,260.802 115.673,260.872 115.673,260.942C115.667,269.055 115.673,277.168 115.673,285.281C115.673,285.309 115.673,285.336 115.672,285.364C115.671,285.409 115.669,285.455 115.666,285.5C115.659,285.621 115.646,285.742 115.626,285.861C115.605,285.987 115.577,286.112 115.542,286.235C115.506,286.36 115.462,286.484 115.411,286.604C115.371,286.696 115.328,286.786 115.28,286.874C115.231,286.965 115.178,287.053 115.12,287.139C115.014,287.297 114.894,287.446 114.763,287.585C114.712,287.639 114.66,287.692 114.606,287.743C114.523,287.821 114.437,287.895 114.346,287.964C114.254,288.035 114.157,288.102 114.058,288.163C113.964,288.22 113.868,288.272 113.769,288.32C113.663,288.371 113.555,288.415 113.445,288.454C113.328,288.496 113.209,288.531 113.088,288.56C112.966,288.588 112.843,288.61 112.719,288.626C112.604,288.641 112.489,288.65 112.373,288.655C112.33,288.657 112.286,288.658 112.243,288.658C112.186,288.659 112.13,288.658 112.073,288.656C111.969,288.652 111.865,288.644 111.762,288.631C111.628,288.614 111.495,288.589 111.364,288.557C111.231,288.523 111.099,288.481 110.971,288.431C110.882,288.396 110.794,288.356 110.707,288.313C110.59,288.255 110.477,288.189 110.368,288.117C110.162,287.98 109.972,287.821 109.799,287.646C109.658,287.502 109.528,287.347 109.414,287.182C109.357,287.1 109.303,287.015 109.254,286.928C109.205,286.841 109.16,286.752 109.119,286.661C109.065,286.542 109.019,286.419 108.98,286.294C108.94,286.162 108.907,286.028 108.884,285.892C108.86,285.759 108.845,285.624 108.837,285.489C108.835,285.444 108.833,285.399 108.832,285.354C108.832,285.333 108.832,285.312 108.832,285.291C108.821,277.174 108.837,269.058 108.832,260.942C108.831,260.872 108.831,260.802 108.829,260.732C108.826,260.589 108.82,260.447 108.81,260.305C108.799,260.143 108.784,259.981 108.765,259.82C108.741,259.618 108.71,259.417 108.672,259.218C108.611,258.9 108.531,258.585 108.433,258.277C108.383,258.118 108.328,257.961 108.268,257.805C108.212,257.662 108.153,257.521 108.089,257.381C107.988,257.158 107.876,256.94 107.755,256.728C107.625,256.5 107.485,256.279 107.335,256.064C107.194,255.862 107.044,255.666 106.887,255.476C106.718,255.273 106.541,255.077 106.357,254.888C106.285,254.814 106.212,254.741 106.137,254.669C105.972,254.51 105.801,254.356 105.625,254.21C105.436,254.053 105.241,253.904 105.04,253.764C104.822,253.612 104.597,253.471 104.365,253.341C104.125,253.206 103.878,253.084 103.625,252.976C103.368,252.865 103.106,252.768 102.838,252.685C102.546,252.594 102.248,252.521 101.947,252.463C101.673,252.41 101.395,252.371 101.117,252.344C100.809,252.315 100.499,252.301 100.189,252.3C99.869,252.3 99.549,252.314 99.231,252.344C98.952,252.371 98.674,252.41 98.399,252.463C98.097,252.521 97.797,252.595 97.503,252.686C97.222,252.772 96.945,252.875 96.675,252.992C96.409,253.107 96.149,253.237 95.896,253.381C95.647,253.522 95.406,253.677 95.172,253.843C94.929,254.017 94.694,254.203 94.469,254.4C94.278,254.567 94.093,254.742 93.916,254.923C93.739,255.103 93.569,255.289 93.407,255.482C93.231,255.692 93.063,255.909 92.906,256.135C92.754,256.354 92.612,256.579 92.481,256.812C92.346,257.051 92.223,257.297 92.114,257.549C92.047,257.702 91.986,257.857 91.929,258.013C91.868,258.182 91.812,258.354 91.763,258.526C91.668,258.856 91.595,259.192 91.542,259.532C91.493,259.842 91.462,260.156 91.446,260.47C91.441,260.576 91.437,260.682 91.436,260.788C91.435,260.825 91.435,260.863 91.434,260.9C91.434,260.922 91.434,260.943 91.434,260.965L91.434,260.974C91.434,260.983 91.434,260.992 91.434,261C91.433,261.021 91.433,261.042 91.432,261.062C91.427,261.166 91.417,261.27 91.403,261.374C91.398,261.411 91.392,261.448 91.386,261.485C91.383,261.505 91.38,261.525 91.376,261.545C91.375,261.551 91.374,261.557 91.373,261.563C91.366,261.61 91.36,261.657 91.355,261.705C91.353,261.722 91.352,261.739 91.351,261.757C91.35,261.773 91.349,261.79 91.349,261.807C91.335,269.632 91.349,277.456 91.349,285.281C91.349,285.301 91.349,285.322 91.348,285.343C91.348,285.388 91.346,285.434 91.344,285.479C91.337,285.604 91.324,285.728 91.304,285.851C91.284,285.974 91.257,286.095 91.224,286.215C91.187,286.344 91.143,286.471 91.091,286.595C91.048,286.696 91,286.795 90.947,286.892C90.9,286.976 90.85,287.059 90.796,287.139C90.692,287.294 90.574,287.441 90.446,287.578C90.386,287.642 90.323,287.705 90.258,287.765C90.183,287.835 90.104,287.901 90.022,287.964C89.93,288.035 89.833,288.102 89.734,288.163C89.643,288.218 89.55,288.269 89.454,288.315C89.346,288.368 89.235,288.414 89.121,288.454C89.004,288.496 88.885,288.531 88.764,288.56C88.642,288.588 88.519,288.61 88.395,288.626C88.28,288.641 88.165,288.65 88.049,288.655C88.006,288.657 87.962,288.658 87.919,288.658C87.862,288.659 87.806,288.658 87.749,288.656C87.645,288.652 87.541,288.644 87.438,288.631C87.304,288.614 87.171,288.589 87.041,288.557C86.907,288.523 86.775,288.481 86.647,288.431C86.548,288.392 86.451,288.348 86.356,288.299C86.249,288.244 86.144,288.183 86.044,288.117C85.835,287.979 85.643,287.817 85.468,287.638C85.33,287.497 85.202,287.344 85.09,287.182C85.033,287.1 84.979,287.015 84.93,286.928C84.881,286.841 84.836,286.752 84.795,286.661C84.741,286.542 84.695,286.419 84.656,286.294C84.617,286.166 84.585,286.035 84.561,285.902C84.538,285.769 84.522,285.635 84.514,285.5C84.511,285.455 84.51,285.409 84.509,285.364C84.508,285.339 84.508,285.315 84.508,285.291C84.49,272.968 84.508,260.646 84.508,248.324C84.508,248.298 84.508,248.273 84.508,248.248C84.509,248.197 84.511,248.146 84.514,248.095C84.522,247.952 84.537,247.808 84.562,247.667C84.585,247.526 84.618,247.387 84.658,247.251C84.701,247.108 84.753,246.968 84.814,246.833C84.865,246.72 84.923,246.61 84.987,246.504C85.048,246.4 85.116,246.3 85.189,246.205C85.255,246.117 85.326,246.032 85.401,245.951C85.461,245.887 85.523,245.824 85.588,245.764C85.679,245.678 85.775,245.597 85.875,245.522C85.946,245.468 86.02,245.417 86.096,245.369C86.189,245.31 86.285,245.255 86.384,245.206C86.476,245.16 86.57,245.118 86.667,245.081C86.782,245.036 86.901,244.998 87.021,244.968C87.131,244.939 87.243,244.917 87.355,244.9C87.469,244.883 87.583,244.872 87.697,244.866C87.739,244.864 87.781,244.862 87.823,244.862C87.84,244.861 87.858,244.861 87.875,244.861C87.882,244.861 87.89,244.861 87.897,244.861ZM188.785,245.484C188.809,245.484 188.834,245.484 188.858,245.485C188.9,245.485 188.942,245.487 188.984,245.489C189.101,245.496 189.219,245.508 189.335,245.527C189.465,245.548 189.592,245.576 189.719,245.612C189.821,245.641 189.922,245.675 190.022,245.714C190.149,245.765 190.274,245.824 190.395,245.89C190.494,245.945 190.591,246.006 190.684,246.071C190.783,246.14 190.879,246.215 190.971,246.295C191.042,246.356 191.111,246.421 191.177,246.488C191.243,246.555 191.306,246.624 191.368,246.696C191.446,246.788 191.519,246.885 191.588,246.985C191.647,247.073 191.703,247.164 191.754,247.258C191.81,247.361 191.861,247.467 191.905,247.575C191.96,247.709 192.006,247.846 192.042,247.986C192.069,248.086 192.089,248.187 192.106,248.289C192.127,248.413 192.139,248.537 192.146,248.662C192.148,248.704 192.15,248.745 192.151,248.787C192.151,248.808 192.151,248.829 192.151,248.85C192.177,260.994 192.151,273.139 192.151,285.283C192.151,285.307 192.151,285.331 192.151,285.356C192.15,285.397 192.148,285.439 192.146,285.481C192.139,285.605 192.127,285.73 192.106,285.853C192.087,285.972 192.061,286.09 192.029,286.207C191.985,286.362 191.93,286.515 191.864,286.662C191.831,286.738 191.794,286.812 191.754,286.884C191.698,286.987 191.636,287.086 191.569,287.183C191.512,287.265 191.452,287.345 191.388,287.422C191.321,287.502 191.25,287.58 191.177,287.654C191.02,287.812 190.85,287.956 190.667,288.082C190.567,288.151 190.465,288.214 190.358,288.271C190.249,288.329 190.137,288.382 190.022,288.427C189.903,288.474 189.782,288.514 189.659,288.546C189.515,288.584 189.37,288.612 189.222,288.631C189.118,288.644 189.014,288.652 188.91,288.656C188.854,288.658 188.798,288.659 188.741,288.658C188.698,288.658 188.654,288.657 188.61,288.655C188.477,288.65 188.344,288.638 188.212,288.619C188.106,288.604 188.001,288.584 187.897,288.56C187.775,288.531 187.656,288.496 187.538,288.455C187.425,288.414 187.314,288.368 187.206,288.315C187.117,288.272 187.03,288.225 186.945,288.174C186.848,288.115 186.754,288.052 186.664,287.983C186.576,287.917 186.492,287.847 186.411,287.772C186.372,287.736 186.333,287.699 186.295,287.661C186.266,287.632 186.236,287.601 186.208,287.57C186.163,287.522 186.119,287.473 186.077,287.422C186.006,287.337 185.939,287.249 185.877,287.157C185.757,286.981 185.655,286.792 185.571,286.596C185.525,286.488 185.486,286.378 185.453,286.266C185.419,286.154 185.392,286.039 185.371,285.924C185.345,285.788 185.329,285.65 185.32,285.512C185.317,285.46 185.314,285.408 185.314,285.356C185.314,285.331 185.314,285.307 185.313,285.283L185.313,282.797C185.303,282.807 185.292,282.818 185.281,282.828C185.272,282.837 185.263,282.845 185.254,282.854C185.236,282.871 185.219,282.888 185.201,282.905C185.134,282.969 185.067,283.033 184.999,283.096C184.806,283.277 184.611,283.453 184.412,283.627C183.956,284.024 183.484,284.402 182.996,284.759C182.549,285.086 182.088,285.395 181.615,285.685C181.07,286.018 180.51,286.325 179.935,286.603C179.713,286.712 179.487,286.815 179.26,286.915C178.979,287.039 178.695,287.155 178.408,287.266C177.849,287.481 177.279,287.67 176.702,287.834C176.107,288.003 175.502,288.145 174.894,288.261C174.376,288.359 173.856,288.438 173.333,288.499C172.419,288.605 171.499,288.656 170.579,288.658C170.37,288.659 170.161,288.657 169.953,288.652C169.522,288.642 169.092,288.62 168.663,288.587C168.201,288.551 167.741,288.501 167.283,288.436C167.043,288.403 166.803,288.365 166.564,288.323C166.091,288.24 165.62,288.141 165.154,288.025C164.928,287.969 164.702,287.91 164.478,287.846C164.332,287.805 164.187,287.762 164.042,287.717C163.517,287.555 162.998,287.371 162.488,287.167C162.088,287.006 161.693,286.833 161.304,286.647C160.992,286.498 160.685,286.341 160.381,286.176C160.171,286.062 159.963,285.944 159.758,285.823C159.556,285.704 159.356,285.582 159.159,285.456C158.974,285.339 158.791,285.218 158.61,285.095C158.069,284.727 157.546,284.334 157.04,283.92C156.629,283.582 156.229,283.231 155.842,282.866C155.662,282.697 155.484,282.525 155.309,282.35C155.11,282.151 154.914,281.949 154.722,281.743C154.382,281.379 154.053,281.005 153.737,280.621C153.591,280.444 153.448,280.265 153.308,280.084C153.133,279.856 152.961,279.625 152.794,279.39C152.569,279.073 152.351,278.75 152.144,278.421C151.935,278.09 151.735,277.753 151.545,277.411C151.391,277.132 151.243,276.849 151.101,276.563C150.882,276.119 150.678,275.666 150.492,275.207C150.418,275.022 150.346,274.836 150.276,274.65C150.055,274.052 149.862,273.444 149.699,272.828C149.54,272.232 149.409,271.629 149.303,271.021C149.2,270.426 149.123,269.826 149.069,269.224C149.012,268.585 148.982,267.945 148.978,267.304C148.972,266.587 148.997,265.869 149.056,265.155C149.114,264.457 149.203,263.763 149.326,263.074C149.383,262.756 149.447,262.44 149.519,262.125C149.613,261.711 149.719,261.301 149.838,260.894C149.952,260.505 150.078,260.119 150.215,259.738C150.303,259.494 150.395,259.252 150.492,259.012C150.765,258.335 151.075,257.673 151.42,257.03C151.569,256.752 151.724,256.477 151.886,256.206C152.093,255.858 152.311,255.516 152.539,255.181C152.941,254.586 153.373,254.012 153.831,253.46C154.272,252.928 154.737,252.416 155.222,251.924C155.436,251.706 155.655,251.492 155.877,251.282C156.179,250.997 156.488,250.72 156.805,250.451C157.378,249.965 157.974,249.507 158.594,249.082C158.959,248.831 159.333,248.591 159.713,248.364C160.021,248.181 160.333,248.005 160.65,247.838C161.014,247.647 161.383,247.466 161.757,247.297C162.066,247.158 162.38,247.026 162.696,246.902C163.058,246.761 163.424,246.63 163.793,246.51C164.149,246.395 164.507,246.289 164.868,246.194C165.566,246.009 166.274,245.862 166.987,245.751C167.299,245.702 167.613,245.66 167.927,245.625C168.345,245.579 168.765,245.544 169.185,245.52C169.492,245.503 169.8,245.492 170.107,245.487C170.29,245.484 170.473,245.483 170.656,245.484C170.816,245.485 170.976,245.487 171.136,245.491C171.622,245.503 172.107,245.528 172.591,245.569C173.23,245.623 173.867,245.702 174.499,245.81C175.083,245.91 175.662,246.033 176.235,246.181C176.575,246.269 176.914,246.366 177.25,246.472C177.47,246.541 177.69,246.615 177.908,246.692C178.354,246.849 178.795,247.023 179.228,247.212C179.509,247.335 179.788,247.465 180.063,247.601C180.758,247.944 181.433,248.329 182.082,248.752C182.392,248.954 182.697,249.164 182.996,249.383C183.356,249.646 183.708,249.921 184.051,250.207C184.341,250.449 184.626,250.7 184.904,250.957C185.004,251.049 185.103,251.142 185.201,251.236C185.237,251.271 185.272,251.305 185.307,251.339L185.313,251.345L185.313,248.86L185.314,248.85C185.314,248.829 185.314,248.808 185.314,248.787C185.314,248.749 185.316,248.71 185.318,248.672C185.324,248.558 185.335,248.444 185.352,248.33C185.369,248.218 185.391,248.106 185.419,247.996C185.45,247.876 185.488,247.758 185.532,247.642C185.608,247.446 185.702,247.258 185.815,247.08C185.87,246.992 185.929,246.908 185.993,246.825C186.064,246.732 186.141,246.642 186.223,246.555C186.283,246.491 186.346,246.429 186.411,246.369C186.494,246.293 186.582,246.22 186.673,246.152C186.769,246.08 186.869,246.013 186.972,245.951C187.076,245.89 187.183,245.835 187.292,245.786C187.434,245.722 187.582,245.668 187.731,245.625C187.858,245.589 187.987,245.559 188.116,245.537C188.262,245.513 188.408,245.497 188.556,245.489C188.599,245.487 188.644,245.485 188.687,245.484C188.712,245.484 188.738,245.484 188.763,245.484C188.77,245.484 188.777,245.484 188.785,245.484ZM236.508,251.09L223.609,266.536L236.52,283.063L236.488,283.031L236.494,283.038C236.514,283.058 236.534,283.079 236.554,283.1C236.582,283.131 236.61,283.162 236.637,283.194C236.705,283.274 236.768,283.358 236.827,283.446C236.87,283.51 236.91,283.576 236.948,283.643C236.968,283.679 236.987,283.716 237.006,283.753C237.035,283.81 237.062,283.868 237.086,283.927C237.105,283.971 237.122,284.016 237.139,284.061C237.146,284.08 237.152,284.098 237.158,284.117C237.179,284.177 237.198,284.239 237.215,284.3C237.234,284.369 237.251,284.438 237.265,284.508C237.274,284.55 237.281,284.591 237.289,284.633C237.317,284.804 237.334,284.978 237.339,285.152C237.341,285.223 237.342,285.294 237.34,285.365C237.339,285.397 237.338,285.428 237.336,285.46C237.335,285.505 237.332,285.55 237.327,285.595C237.322,285.661 237.315,285.726 237.306,285.791C237.29,285.897 237.27,286.002 237.244,286.106C237.241,286.123 237.236,286.14 237.232,286.156C237.224,286.186 237.216,286.216 237.207,286.246C237.183,286.329 237.156,286.41 237.125,286.49C237.103,286.548 237.08,286.605 237.054,286.662C236.968,286.854 236.863,287.037 236.741,287.208C236.657,287.327 236.565,287.44 236.467,287.548C236.425,287.594 236.381,287.64 236.336,287.684C236.292,287.728 236.246,287.771 236.2,287.813C236.125,287.88 236.047,287.943 235.966,288.004C235.875,288.072 235.781,288.135 235.683,288.194C235.615,288.235 235.546,288.273 235.475,288.309C235.343,288.376 235.207,288.433 235.066,288.481C234.949,288.521 234.829,288.554 234.708,288.58C234.591,288.606 234.47,288.625 234.351,288.638C234.233,288.65 234.115,288.657 233.996,288.658C233.845,288.659 233.692,288.651 233.541,288.634C233.399,288.617 233.258,288.592 233.119,288.559C232.979,288.524 232.841,288.482 232.706,288.43C232.581,288.382 232.459,288.328 232.34,288.266C232.217,288.202 232.095,288.13 231.98,288.052C231.899,287.997 231.82,287.94 231.744,287.88C231.657,287.811 231.572,287.738 231.49,287.662C231.459,287.633 231.428,287.604 231.397,287.574C231.386,287.563 231.375,287.552 231.365,287.541L231.327,287.501L231.291,287.459L219.123,271.905L206.951,287.464C206.946,287.469 206.942,287.475 206.936,287.481C206.925,287.495 206.915,287.508 206.904,287.522C206.88,287.549 206.858,287.575 206.834,287.602C206.758,287.686 206.679,287.766 206.594,287.842C206.513,287.915 206.428,287.984 206.339,288.048C206.232,288.125 206.119,288.196 206.002,288.258C205.894,288.316 205.782,288.368 205.667,288.413C205.547,288.46 205.424,288.5 205.299,288.533C205.074,288.593 204.843,288.629 204.611,288.646C204.533,288.652 204.456,288.656 204.38,288.657C204.329,288.658 204.279,288.659 204.229,288.658C204.197,288.657 204.166,288.657 204.134,288.655C204.002,288.65 203.871,288.638 203.741,288.618C203.543,288.588 203.349,288.54 203.16,288.474C202.984,288.413 202.814,288.336 202.652,288.246C202.511,288.167 202.375,288.077 202.247,287.978C202.123,287.883 202.005,287.779 201.894,287.668C201.825,287.6 201.759,287.528 201.696,287.454C201.62,287.364 201.548,287.271 201.481,287.174C201.425,287.092 201.371,287.007 201.323,286.92C201.264,286.815 201.21,286.707 201.163,286.596C201.125,286.504 201.09,286.41 201.06,286.315C201.029,286.217 201.002,286.117 200.981,286.016C200.94,285.826 200.917,285.633 200.908,285.439C200.904,285.332 200.904,285.225 200.909,285.118C200.917,284.963 200.936,284.809 200.965,284.657C200.984,284.556 201.009,284.455 201.038,284.356C201.058,284.289 201.079,284.222 201.104,284.156C201.156,284.009 201.22,283.866 201.292,283.728C201.368,283.581 201.453,283.44 201.547,283.305C201.579,283.259 201.612,283.213 201.646,283.167C201.662,283.147 201.677,283.126 201.693,283.106L214.719,266.536L201.739,251.091L201.76,251.113L201.754,251.106L201.747,251.099C201.731,251.083 201.715,251.067 201.7,251.05C201.669,251.018 201.639,250.984 201.61,250.95C201.532,250.857 201.458,250.759 201.392,250.657C201.324,250.552 201.264,250.442 201.21,250.329C201.161,250.225 201.117,250.117 201.081,250.007C201.051,249.919 201.026,249.829 201.003,249.738C200.982,249.647 200.964,249.555 200.95,249.462C200.925,249.302 200.911,249.142 200.907,248.981C200.907,248.957 200.906,248.934 200.906,248.911C200.906,248.883 200.905,248.856 200.906,248.829C200.906,248.784 200.907,248.739 200.909,248.693C200.914,248.582 200.924,248.472 200.939,248.361C200.959,248.221 200.988,248.083 201.025,247.946C201.067,247.793 201.12,247.644 201.183,247.499C201.229,247.398 201.278,247.3 201.333,247.204C201.387,247.108 201.447,247.015 201.511,246.925C201.577,246.832 201.648,246.742 201.723,246.656C201.778,246.593 201.835,246.532 201.894,246.473C202.023,246.345 202.159,246.227 202.305,246.119C202.36,246.079 202.417,246.04 202.475,246.002C202.571,245.941 202.669,245.884 202.771,245.833C202.891,245.772 203.014,245.719 203.141,245.674C203.27,245.628 203.403,245.591 203.538,245.561C203.659,245.535 203.782,245.516 203.906,245.503C204.023,245.49 204.142,245.484 204.26,245.484C204.414,245.483 204.569,245.491 204.722,245.51C204.884,245.53 205.045,245.561 205.203,245.603C205.308,245.631 205.412,245.664 205.514,245.702C205.648,245.752 205.779,245.811 205.905,245.877C205.991,245.921 206.074,245.969 206.156,246.019C206.272,246.092 206.384,246.171 206.492,246.256C206.58,246.324 206.665,246.397 206.747,246.472C206.773,246.496 206.798,246.52 206.823,246.544C206.842,246.563 206.861,246.582 206.88,246.601L206.935,246.66L219.123,261.189L231.337,246.629C231.348,246.618 231.36,246.606 231.372,246.594C231.389,246.577 231.405,246.561 231.422,246.545C231.472,246.496 231.524,246.449 231.575,246.403C231.679,246.312 231.787,246.226 231.9,246.146C231.952,246.109 232.006,246.073 232.06,246.038C232.106,246.009 232.153,245.98 232.201,245.952C232.236,245.933 232.27,245.914 232.304,245.895C232.391,245.849 232.479,245.806 232.569,245.768C232.722,245.701 232.881,245.646 233.042,245.603C233.215,245.557 233.391,245.524 233.569,245.505C233.651,245.496 233.734,245.49 233.817,245.486C233.863,245.485 233.908,245.484 233.953,245.484C233.96,245.484 233.968,245.484 233.976,245.484C233.989,245.484 234.004,245.484 234.017,245.484C234.055,245.484 234.094,245.486 234.132,245.487C234.233,245.492 234.333,245.501 234.433,245.514C234.545,245.528 234.658,245.549 234.769,245.575C234.873,245.6 234.975,245.629 235.076,245.664C235.213,245.711 235.346,245.768 235.475,245.833C235.583,245.887 235.687,245.947 235.788,246.013C235.909,246.092 236.026,246.18 236.136,246.274C236.205,246.333 236.272,246.394 236.336,246.458C236.475,246.595 236.603,246.743 236.718,246.9C236.772,246.976 236.824,247.053 236.872,247.133C236.934,247.236 236.991,247.342 237.042,247.452C237.086,247.549 237.126,247.648 237.16,247.749C237.194,247.847 237.223,247.946 237.247,248.047C237.255,248.08 237.262,248.114 237.27,248.147C237.287,248.232 237.301,248.317 237.312,248.403C237.32,248.464 237.327,248.527 237.331,248.589C237.336,248.648 237.338,248.707 237.34,248.766C237.341,248.814 237.341,248.863 237.341,248.911C237.34,248.941 237.34,248.971 237.338,249.001C237.338,249.01 237.338,249.02 237.337,249.03C237.337,249.04 237.336,249.051 237.336,249.061C237.335,249.087 237.334,249.113 237.332,249.139C237.327,249.202 237.322,249.265 237.315,249.327C237.314,249.337 237.312,249.346 237.311,249.356C237.309,249.375 237.307,249.394 237.304,249.413C237.298,249.458 237.29,249.504 237.282,249.549C237.272,249.603 237.261,249.657 237.249,249.711C237.233,249.777 237.216,249.842 237.197,249.906C237.186,249.943 237.175,249.98 237.162,250.017C237.139,250.084 237.114,250.15 237.086,250.216C237.048,250.307 237.005,250.396 236.957,250.483C236.897,250.593 236.829,250.698 236.755,250.799C236.698,250.876 236.637,250.951 236.572,251.021C236.555,251.04 236.538,251.059 236.521,251.077L236.508,251.09ZM170.533,252.322L170.509,252.322L170.341,252.323C170.249,252.324 170.158,252.325 170.066,252.328C169.835,252.334 169.603,252.345 169.372,252.361C168.782,252.402 168.194,252.475 167.613,252.585C167.321,252.64 167.03,252.704 166.741,252.778C166.524,252.834 166.307,252.894 166.092,252.96C165.614,253.108 165.143,253.281 164.683,253.481C164.277,253.657 163.879,253.854 163.492,254.069C163.129,254.271 162.776,254.49 162.432,254.723C162.081,254.961 161.741,255.215 161.412,255.483C161.262,255.605 161.115,255.729 160.969,255.857C160.795,256.009 160.624,256.166 160.457,256.325C160.353,256.424 160.25,256.525 160.149,256.626C160.02,256.756 159.892,256.888 159.767,257.022C159.566,257.237 159.371,257.457 159.183,257.682C159.106,257.774 159.03,257.866 158.955,257.96C158.898,258.032 158.841,258.104 158.785,258.177C158.687,258.303 158.592,258.431 158.498,258.561C158.384,258.72 158.272,258.881 158.164,259.044C157.891,259.455 157.64,259.88 157.411,260.317C157.299,260.532 157.193,260.75 157.092,260.97C156.977,261.224 156.869,261.48 156.769,261.74C156.588,262.21 156.433,262.69 156.305,263.178C156.245,263.404 156.191,263.632 156.143,263.861C156.102,264.056 156.065,264.251 156.031,264.447C156.012,264.559 155.995,264.671 155.978,264.784C155.952,264.965 155.929,265.147 155.909,265.329C155.881,265.583 155.86,265.838 155.844,266.093C155.835,266.246 155.828,266.399 155.823,266.552C155.817,266.727 155.814,266.903 155.814,267.078C155.813,267.265 155.816,267.452 155.822,267.64C155.834,268.045 155.861,268.449 155.904,268.852C155.929,269.087 155.959,269.321 155.995,269.555C156.015,269.685 156.037,269.815 156.061,269.945C156.075,270.026 156.091,270.107 156.107,270.188C156.162,270.464 156.225,270.74 156.296,271.013C156.334,271.155 156.373,271.297 156.415,271.438C156.468,271.618 156.525,271.796 156.585,271.973C156.68,272.249 156.783,272.522 156.895,272.792C157.064,273.2 157.253,273.6 157.462,273.99C157.554,274.162 157.649,274.332 157.748,274.5C157.899,274.755 158.058,275.006 158.225,275.251C158.322,275.394 158.421,275.535 158.523,275.674C158.572,275.741 158.622,275.808 158.672,275.874C158.736,275.959 158.801,276.043 158.867,276.126C158.92,276.192 158.972,276.258 159.026,276.323C159.192,276.527 159.364,276.726 159.541,276.921C159.737,277.138 159.939,277.349 160.146,277.555C160.403,277.81 160.667,278.057 160.94,278.295C161.191,278.514 161.449,278.725 161.714,278.928C161.846,279.028 161.98,279.127 162.115,279.223C162.231,279.305 162.348,279.386 162.466,279.465C162.697,279.62 162.933,279.767 163.172,279.908C163.359,280.017 163.549,280.123 163.741,280.223C163.974,280.346 164.211,280.461 164.45,280.569C164.696,280.681 164.945,280.785 165.198,280.881C165.437,280.972 165.678,281.057 165.922,281.135C166.227,281.232 166.536,281.319 166.847,281.395C167.046,281.443 167.246,281.487 167.446,281.527C167.668,281.571 167.89,281.61 168.113,281.644C168.244,281.664 168.376,281.682 168.508,281.698C168.68,281.719 168.851,281.738 169.024,281.754C169.521,281.799 170.021,281.82 170.521,281.82C171.021,281.82 171.52,281.799 172.018,281.754C172.559,281.704 173.098,281.628 173.63,281.52C173.791,281.488 173.952,281.453 174.111,281.415C174.234,281.386 174.357,281.355 174.479,281.323C174.596,281.292 174.714,281.259 174.83,281.225C174.929,281.196 175.028,281.166 175.126,281.134C175.371,281.057 175.614,280.972 175.853,280.881C176.124,280.778 176.392,280.666 176.655,280.546C176.915,280.427 177.172,280.301 177.425,280.166C177.578,280.084 177.73,280 177.88,279.912C178.209,279.721 178.53,279.516 178.843,279.299C178.939,279.233 179.034,279.165 179.129,279.096C179.234,279.02 179.337,278.942 179.439,278.863C179.51,278.809 179.58,278.755 179.648,278.7C179.751,278.618 179.853,278.535 179.953,278.451C180.132,278.3 180.309,278.146 180.482,277.987C180.631,277.851 180.779,277.711 180.924,277.569C181.028,277.466 181.132,277.361 181.236,277.255C181.329,277.158 181.421,277.06 181.512,276.961C181.719,276.736 181.921,276.504 182.116,276.266C182.193,276.172 182.27,276.076 182.345,275.98C182.385,275.928 182.424,275.877 182.464,275.825C182.523,275.747 182.581,275.668 182.639,275.589C182.668,275.549 182.697,275.509 182.725,275.47C182.804,275.36 182.881,275.249 182.956,275.136C182.989,275.087 183.022,275.037 183.054,274.987C183.144,274.851 183.231,274.712 183.316,274.572C183.44,274.367 183.558,274.159 183.671,273.948C183.711,273.874 183.75,273.799 183.789,273.724C183.874,273.558 183.955,273.39 184.033,273.221C184.075,273.128 184.118,273.034 184.159,272.941C184.207,272.827 184.255,272.712 184.302,272.597C184.479,272.155 184.633,271.703 184.762,271.245C184.838,270.978 184.905,270.709 184.964,270.438C185.005,270.252 185.043,270.065 185.077,269.877C185.129,269.582 185.172,269.286 185.207,268.988C185.216,268.908 185.225,268.828 185.233,268.748C185.248,268.598 185.261,268.448 185.271,268.297C185.276,268.231 185.28,268.165 185.285,268.099C185.29,268.009 185.295,267.919 185.298,267.829C185.302,267.75 185.305,267.671 185.306,267.592C185.308,267.548 185.309,267.505 185.31,267.461C185.312,267.358 185.313,267.254 185.313,267.15C185.314,266.631 185.292,266.111 185.244,265.594C185.224,265.384 185.201,265.175 185.172,264.966C185.163,264.89 185.152,264.815 185.14,264.74C185.125,264.643 185.11,264.546 185.094,264.449C185.084,264.389 185.073,264.33 185.062,264.27C185.054,264.226 185.046,264.182 185.037,264.138C185.014,264.02 184.991,263.903 184.964,263.786C184.929,263.623 184.89,263.46 184.849,263.298C184.827,263.216 184.805,263.133 184.783,263.051C184.751,262.938 184.718,262.824 184.684,262.711C184.602,262.44 184.511,262.172 184.412,261.907C184.38,261.822 184.348,261.736 184.313,261.651C184.28,261.566 184.245,261.481 184.209,261.396C184.127,261.2 184.04,261.006 183.949,260.814C183.89,260.691 183.829,260.569 183.767,260.448C183.725,260.366 183.683,260.284 183.639,260.203C183.558,260.053 183.475,259.905 183.388,259.758C183.328,259.655 183.266,259.554 183.204,259.452C183.176,259.408 183.148,259.364 183.12,259.32C183.078,259.254 183.035,259.188 182.992,259.122C182.952,259.062 182.912,259.003 182.873,258.944C182.78,258.81 182.687,258.677 182.591,258.546C182.345,258.21 182.086,257.885 181.814,257.57C181.542,257.254 181.258,256.949 180.963,256.655C180.705,256.397 180.438,256.146 180.163,255.905C179.817,255.603 179.459,255.315 179.089,255.044C179.007,254.984 178.924,254.924 178.84,254.866C178.686,254.758 178.53,254.653 178.371,254.551C178.152,254.41 177.93,254.275 177.703,254.146C177.453,254.004 177.198,253.87 176.94,253.744C176.779,253.665 176.616,253.589 176.451,253.517C176.183,253.399 175.91,253.289 175.635,253.188C175.403,253.104 175.17,253.026 174.934,252.954C174.669,252.873 174.401,252.8 174.131,252.735C173.917,252.684 173.702,252.637 173.486,252.596C172.917,252.486 172.341,252.411 171.763,252.368C171.485,252.347 171.206,252.333 170.927,252.327C170.796,252.323 170.665,252.322 170.533,252.322ZM236.508,251.09L236.509,251.089L236.487,251.111L236.508,251.09Z" style="fill:rgb(255,255,255);"></path>
                <path d="M395.14,267.505L415.5,282.282L409.062,286.13C408.919,286.205 408.823,286.342 408.785,286.494C408.746,286.645 408.778,286.814 408.856,286.946L412.248,292.636L409.153,294.486L405.759,288.807C405.712,288.727 405.65,288.662 405.579,288.614L405.579,288.614L405.578,288.613C405.559,288.6 405.538,288.588 405.518,288.577C405.515,288.576 405.513,288.575 405.511,288.574C405.464,288.549 405.413,288.532 405.361,288.521L405.357,288.521C405.353,288.52 405.349,288.519 405.344,288.518L405.343,288.518L405.342,288.518C405.338,288.517 405.334,288.517 405.332,288.516C405.326,288.516 405.322,288.515 405.316,288.514C405.189,288.499 405.053,288.525 404.931,288.598L398.492,292.445L397.915,288.144L397.21,282.908L395.14,267.505ZM397.272,270.756C397.256,270.755 397.239,270.756 397.222,270.758C397.054,270.79 396.941,270.936 396.962,271.102L399.365,288.933C399.382,289.061 399.47,289.157 399.587,289.187C399.592,289.188 399.599,289.19 399.605,289.19L399.607,289.191C399.613,289.192 399.62,289.192 399.628,289.192L399.631,289.193C399.639,289.193 399.647,289.193 399.656,289.193C399.673,289.193 399.69,289.193 399.709,289.193C399.878,289.161 399.989,289.015 399.969,288.849L399.805,287.631L399.088,282.308L397.565,271.018C397.54,270.883 397.442,270.785 397.319,270.761C397.306,270.759 397.292,270.757 397.278,270.756L397.276,270.756L397.272,270.756ZM309.72,245.484C310.433,245.484 311.055,245.736 311.59,246.24C312.124,246.745 312.392,247.353 312.392,248.066C312.392,248.422 312.303,248.748 312.124,249.045L297.079,287.056C296.664,288.125 295.864,288.658 294.676,288.658C293.49,288.658 292.658,288.125 292.184,287.056L279.543,255.098L266.902,287.056C266.487,288.125 265.686,288.658 264.5,288.658C263.312,288.658 262.511,288.125 262.095,287.056L246.962,249.045C246.844,248.688 246.784,248.362 246.784,248.066C246.784,247.353 247.036,246.745 247.541,246.24C248.046,245.736 248.653,245.484 249.365,245.484C250.553,245.484 251.383,246.018 251.859,247.086L264.5,279.044L277.14,247.086C277.554,246.018 278.356,245.484 279.543,245.484C280.73,245.484 281.561,246.018 282.036,247.086L294.676,279.044L307.317,247.086C307.732,246.018 308.534,245.484 309.72,245.484ZM396.736,288.369C395.543,288.562 394.312,288.658 393.042,288.658C386.454,288.658 381.024,286.136 376.751,281.092L376.751,286.077C376.751,286.789 376.499,287.397 375.994,287.902C375.49,288.406 374.851,288.658 374.08,288.658C373.368,288.658 372.761,288.406 372.256,287.902C371.752,287.397 371.499,286.789 371.499,286.077L371.499,223.051C371.499,222.339 371.752,221.73 372.256,221.226C372.761,220.722 373.368,220.469 374.08,220.469C374.851,220.469 375.49,220.722 375.994,221.226C376.499,221.73 376.751,222.339 376.751,223.051L376.751,253.05C381.024,248.006 386.454,245.484 393.042,245.484C398.975,245.484 404.064,247.605 408.307,251.849C412.551,256.093 414.673,261.181 414.673,267.116C414.673,271.159 413.688,274.803 411.719,278.047L407.453,274.953C408.766,272.614 409.421,270.001 409.421,267.116C409.421,262.606 407.82,258.748 404.614,255.543C401.41,252.338 397.552,250.736 393.042,250.736C388.531,250.736 384.687,252.338 381.513,255.543C378.338,258.748 376.751,262.606 376.751,267.116C376.751,271.626 378.338,275.469 381.513,278.644C384.687,281.818 388.531,283.406 393.042,283.406C394.073,283.406 395.071,283.323 396.034,283.157L396.736,288.369ZM322.984,267.828C323.221,272.16 324.912,275.839 328.058,278.866C331.202,281.892 334.942,283.406 339.274,283.406C343.31,283.406 347.167,281.803 350.847,278.598C351.5,278.124 352.122,277.887 352.717,277.887C353.428,277.887 354.037,278.139 354.541,278.644C355.046,279.148 355.298,279.757 355.298,280.468C355.298,281.122 355.061,281.745 354.587,282.338C352.805,284.296 350.505,285.84 347.686,286.967C344.868,288.095 342.063,288.658 339.274,288.658C333.339,288.658 328.266,286.551 324.053,282.338C319.839,278.124 317.732,273.051 317.732,267.116L317.732,265.691C317.732,265.455 317.791,264.979 317.91,264.267C318.503,261.478 319.037,259.55 319.513,258.481C321.233,254.505 323.888,251.344 327.48,249.001C331.069,246.657 335.001,245.484 339.274,245.484C344.971,245.484 349.927,247.353 354.141,251.092C358.355,254.831 360.579,259.46 360.818,264.979L360.818,265.246C360.877,265.959 360.64,266.566 360.105,267.071C359.57,267.575 358.948,267.828 358.235,267.828L322.984,267.828ZM339.274,250.736C335.655,250.736 332.375,251.849 329.438,254.075C326.499,256.301 324.556,259.134 323.607,262.575L355.031,262.575C354.081,259.074 352.138,256.226 349.2,254.03C346.262,251.834 342.953,250.736 339.274,250.736Z" style="fill:rgb(255,255,255);"></path>
            </g>
        </g>
    </g>
</svg>