<svg clip-rule="evenodd" fill-rule="evenodd" stroke-linejoin="round" stroke-miterlimit="1.41421" viewBox="0 0 331 75" xmlns="http://www.w3.org/2000/svg"><g fill="#fff" transform="translate(-84.5 -220.4687)"><path d="m87.897 244.861c.031 0 .063.001.094.001.05.002.1.004.151.007.146.009.293.026.438.052.141.025.28.059.416.103.163.051.321.116.473.195.143.073.279.159.408.256.125.094.243.198.352.311.055.057.107.116.157.176.012.015.024.03.036.044.008.011.017.021.025.032l.051.066c.07.092.137.186.201.282.031.047.062.095.091.143.023.037.046.075.068.113.125.216.231.444.31.682.01.032.02.064.03.096.012.043.024.086.034.129.029.117.05.235.063.354.003.027.005.055.007.083.001.012.002.025.003.037.001.015.001.031.002.047.004.062.007.124.01.187v.002c.014-.009.027-.019.041-.028.012-.009.024-.018.036-.026.064-.045.128-.09.193-.134.137-.094.276-.186.417-.275.374-.239.758-.461 1.152-.666.319-.166.644-.321.974-.463.4-.172.806-.326 1.219-.461.362-.119.729-.223 1.099-.313.384-.094.771-.171 1.161-.234.383-.062.769-.109 1.156-.142.378-.032.757-.051 1.137-.057.272-.004.545-.002.817.007.418.014.836.044 1.252.09.387.044.772.102 1.155.175.385.073.768.161 1.146.265.275.074.547.157.817.247.256.086.51.178.762.278.535.211 1.058.452 1.566.721.321.17.636.35.944.541.28.173.554.355.822.546.305.217.602.446.89.686.283.236.557.483.821.739.295.287.579.587.849.898.112.128.221.258.328.391.043.053.086.106.128.16l.016.02c.011-.013.021-.027.032-.04.022-.028.044-.056.067-.084.057-.072.115-.143.174-.214.154-.187.313-.371.475-.551.391-.434.805-.847 1.242-1.234.192-.171.389-.337.591-.497.211-.169.427-.331.647-.487.215-.152.434-.299.657-.439.227-.142.458-.278.692-.406.394-.217.798-.414 1.21-.591.393-.169.794-.319 1.201-.452.403-.131.811-.245 1.224-.341.41-.096.824-.175 1.241-.237.765-.116 1.539-.176 2.313-.19.084-.002.168-.003.253-.003s.17 0 .255.001c.15.001.301.004.452.01.241.008.483.022.724.041.266.022.532.05.797.084.556.073 1.109.177 1.655.311.283.07.564.149.842.235.218.068.435.142.65.22.327.12.65.251.968.394.234.105.465.217.692.334.264.136.524.28.779.431.226.135.449.276.668.422.422.281.829.583 1.222.903.329.269.648.55.956.841.151.143.3.289.445.437.377.382.737.781 1.078 1.196.298.365.581.743.847 1.132.186.274.363.553.53.838.098.165.191.331.282.5.248.462.472.936.668 1.422.19.467.354.944.493 1.429.056.194.108.39.156.586.073.305.138.611.192.92.096.543.163 1.092.201 1.643.018.266.03.533.036.8.003.119.004.237.004.356.003 8.112 0 16.224 0 24.337 0 .024 0 .048-.001.072-.001.046-.002.091-.005.136-.008.142-.024.284-.05.424-.024.135-.057.269-.099.401-.038.121-.084.24-.136.356-.034.075-.071.149-.111.222-.055.099-.115.196-.18.29-.053.077-.11.151-.169.223-.073.089-.151.174-.232.256-.078.079-.16.154-.246.226-.077.065-.157.126-.239.183-.102.071-.207.137-.316.196-.091.049-.184.094-.28.134-.11.047-.224.087-.34.121-.102.031-.206.056-.311.076-.116.022-.232.038-.35.048-.107.009-.215.013-.323.013-.126 0-.251-.007-.376-.02-.082-.009-.165-.021-.246-.036-.116-.02-.23-.048-.342-.081-.106-.031-.21-.067-.312-.109s-.201-.089-.298-.141c-.107-.058-.209-.121-.309-.189-.134-.092-.261-.195-.381-.305-.057-.052-.112-.106-.165-.161-.13-.135-.25-.28-.357-.434-.065-.094-.125-.191-.18-.29-.048-.088-.092-.177-.131-.269-.051-.117-.095-.236-.131-.358-.039-.129-.069-.261-.091-.393-.021-.123-.035-.248-.042-.372-.003-.042-.005-.084-.006-.126 0-.028-.001-.056-.001-.084-.008-8.116.007-16.232 0-24.348 0-.056 0-.112-.002-.168-.002-.129-.007-.258-.014-.387-.021-.343-.06-.686-.12-1.024-.055-.316-.129-.628-.222-.935-.086-.287-.188-.568-.306-.843-.088-.205-.185-.406-.29-.603-.135-.253-.283-.5-.444-.738-.145-.215-.299-.423-.463-.625-.157-.194-.322-.382-.493-.563-.104-.11-.211-.218-.32-.324-.164-.158-.334-.311-.508-.457-.197-.166-.401-.323-.612-.47-.248-.174-.506-.335-.772-.481-.262-.144-.531-.274-.808-.388-.264-.109-.535-.204-.809-.284-.253-.075-.51-.136-.77-.186-.257-.05-.516-.088-.776-.115-.284-.029-.569-.045-.854-.05-.238-.003-.476.001-.713.015-.3.017-.599.049-.896.096-.304.049-.607.114-.904.196-.281.078-.557.17-.827.278-.263.105-.52.224-.77.356-.261.138-.515.29-.76.456-.223.15-.439.31-.647.48-.197.16-.388.329-.572.505-.073.069-.144.139-.214.21-.187.189-.367.385-.538.589-.157.186-.306.378-.448.577-.15.21-.29.428-.421.651-.129.223-.249.453-.357.687-.128.279-.24.566-.336.859-.052.159-.098.32-.14.482-.039.151-.074.304-.104.457-.071.358-.118.72-.144 1.083-.01.151-.017.303-.021.454-.001.07-.002.14-.002.21-.006 8.113 0 16.226 0 24.339 0 .028 0 .055-.001.083-.001.045-.003.091-.006.136-.007.121-.02.242-.04.361-.021.126-.049.251-.084.374-.036.125-.08.249-.131.369-.04.092-.083.182-.131.27-.049.091-.102.179-.16.265-.106.158-.226.307-.357.446-.051.054-.103.107-.157.158-.083.078-.169.152-.26.221-.092.071-.189.138-.288.199-.094.057-.19.109-.289.157-.106.051-.214.095-.324.134-.117.042-.236.077-.357.106-.122.028-.245.05-.369.066-.115.015-.23.024-.346.029-.043.002-.087.003-.13.003-.057.001-.113 0-.17-.002-.104-.004-.208-.012-.311-.025-.134-.017-.267-.042-.398-.074-.133-.034-.265-.076-.393-.126-.089-.035-.177-.075-.264-.118-.117-.058-.23-.124-.339-.196-.206-.137-.396-.296-.569-.471-.141-.144-.271-.299-.385-.464-.057-.082-.111-.167-.16-.254s-.094-.176-.135-.267c-.054-.119-.1-.242-.139-.367-.04-.132-.073-.266-.096-.402-.024-.133-.039-.268-.047-.403-.002-.045-.004-.09-.005-.135 0-.021 0-.042 0-.063-.011-8.117.005-16.233 0-24.349-.001-.07-.001-.14-.003-.21-.003-.143-.009-.285-.019-.427-.011-.162-.026-.324-.045-.485-.024-.202-.055-.403-.093-.602-.061-.318-.141-.633-.239-.941-.05-.159-.105-.316-.165-.472-.056-.143-.115-.284-.179-.424-.101-.223-.213-.441-.334-.653-.13-.228-.27-.449-.42-.664-.141-.202-.291-.398-.448-.588-.169-.203-.346-.399-.53-.588-.072-.074-.145-.147-.22-.219-.165-.159-.336-.313-.512-.459-.189-.157-.384-.306-.585-.446-.218-.152-.443-.293-.675-.423-.24-.135-.487-.257-.74-.365-.257-.111-.519-.208-.787-.291-.292-.091-.59-.164-.891-.222-.274-.053-.552-.092-.83-.119-.308-.029-.618-.043-.928-.044-.32 0-.64.014-.958.044-.279.027-.557.066-.832.119-.302.058-.602.132-.896.223-.281.086-.558.189-.828.306-.266.115-.526.245-.779.389-.249.141-.49.296-.724.462-.243.174-.478.36-.703.557-.191.167-.376.342-.553.523-.177.18-.347.366-.509.559-.176.21-.344.427-.501.653-.152.219-.294.444-.425.677-.135.239-.258.485-.367.737-.067.153-.128.308-.185.464-.061.169-.117.341-.166.513-.095.33-.168.666-.221 1.006-.049.31-.08.624-.096.938-.005.106-.009.212-.01.318-.001.037-.001.075-.002.112v.065.009.026c-.001.021-.001.042-.002.062-.005.104-.015.208-.029.312-.005.037-.011.074-.017.111-.003.02-.006.04-.01.06-.001.006-.002.012-.003.018-.007.047-.013.094-.018.142-.002.017-.003.034-.004.052-.001.016-.002.033-.002.05-.014 7.825 0 15.649 0 23.474 0 .02 0 .041-.001.062 0 .045-.002.091-.004.136-.007.125-.02.249-.04.372s-.047.244-.08.364c-.037.129-.081.256-.133.38-.043.101-.091.2-.144.297-.047.084-.097.167-.151.247-.104.155-.222.302-.35.439-.06.064-.123.127-.188.187-.075.07-.154.136-.236.199-.092.071-.189.138-.288.199-.091.055-.184.106-.28.152-.108.053-.219.099-.333.139-.117.042-.236.077-.357.106-.122.028-.245.05-.369.066-.115.015-.23.024-.346.029-.043.002-.087.003-.13.003-.057.001-.113 0-.17-.002-.104-.004-.208-.012-.311-.025-.134-.017-.267-.042-.397-.074-.134-.034-.266-.076-.394-.126-.099-.039-.196-.083-.291-.132-.107-.055-.212-.116-.312-.182-.209-.138-.401-.3-.576-.479-.138-.141-.266-.294-.378-.456-.057-.082-.111-.167-.16-.254s-.094-.176-.135-.267c-.054-.119-.1-.242-.139-.367-.039-.128-.071-.259-.095-.392-.023-.133-.039-.267-.047-.402-.003-.045-.004-.091-.005-.136-.001-.025-.001-.049-.001-.073-.018-12.323 0-24.645 0-36.967 0-.026 0-.051 0-.076.001-.051.003-.102.006-.153.008-.143.023-.287.048-.428.023-.141.056-.28.096-.416.043-.143.095-.283.156-.418.051-.113.109-.223.173-.329.061-.104.129-.204.202-.299.066-.088.137-.173.212-.254.06-.064.122-.127.187-.187.091-.086.187-.167.287-.242.071-.054.145-.105.221-.153.093-.059.189-.114.288-.163.092-.046.186-.088.283-.125.115-.045.234-.083.354-.113.11-.029.222-.051.334-.068.114-.017.228-.028.342-.034.042-.002.084-.004.126-.004.017-.001.035-.001.052-.001zm100.888.623c.024 0 .049 0 .073.001.042 0 .084.002.126.004.117.007.235.019.351.038.13.021.257.049.384.085.102.029.203.063.303.102.127.051.252.11.373.176.099.055.196.116.289.181.099.069.195.144.287.224.071.061.14.126.206.193s.129.136.191.208c.078.092.151.189.22.289.059.088.115.179.166.273.056.103.107.209.151.317.055.134.101.271.137.411.027.1.047.201.064.303.021.124.033.248.04.373.002.042.004.083.005.125v.063c.026 12.144 0 24.289 0 36.433v.073c-.001.041-.003.083-.005.125-.007.124-.019.249-.04.372-.019.119-.045.237-.077.354-.044.155-.099.308-.165.455-.033.076-.07.15-.11.222-.056.103-.118.202-.185.299-.057.082-.117.162-.181.239-.067.08-.138.158-.211.232-.157.158-.327.302-.51.428-.1.069-.202.132-.309.189-.109.058-.221.111-.336.156-.119.047-.24.087-.363.119-.144.038-.289.066-.437.085-.104.013-.208.021-.312.025-.056.002-.112.003-.169.002-.043 0-.087-.001-.131-.003-.133-.005-.266-.017-.398-.036-.106-.015-.211-.035-.315-.059-.122-.029-.241-.064-.359-.105-.113-.041-.224-.087-.332-.14-.089-.043-.176-.09-.261-.141-.097-.059-.191-.122-.281-.191-.088-.066-.172-.136-.253-.211-.039-.036-.078-.073-.116-.111-.029-.029-.059-.06-.087-.091-.045-.048-.089-.097-.131-.148-.071-.085-.138-.173-.2-.265-.12-.176-.222-.365-.306-.561-.046-.108-.085-.218-.118-.33-.034-.112-.061-.227-.082-.342-.026-.136-.042-.274-.051-.412-.003-.052-.006-.104-.006-.156 0-.025 0-.049-.001-.073v-2.486c-.01.01-.021.021-.032.031-.009.009-.018.017-.027.026-.018.017-.035.034-.053.051-.067.064-.134.128-.202.191-.193.181-.388.357-.587.531-.456.397-.928.775-1.416 1.132-.447.327-.908.636-1.381.926-.545.333-1.105.64-1.68.918-.222.109-.448.212-.675.312-.281.124-.565.24-.852.351-.559.215-1.129.404-1.706.568-.595.169-1.2.311-1.808.427-.518.098-1.038.177-1.561.238-.914.106-1.834.157-2.754.159-.209.001-.418-.001-.626-.006-.431-.01-.861-.032-1.29-.065-.462-.036-.922-.086-1.38-.151-.24-.033-.48-.071-.719-.113-.473-.083-.944-.182-1.41-.298-.226-.056-.452-.115-.676-.179-.146-.041-.291-.084-.436-.129-.525-.162-1.044-.346-1.554-.55-.4-.161-.795-.334-1.184-.52-.312-.149-.619-.306-.923-.471-.21-.114-.418-.232-.623-.353-.202-.119-.402-.241-.599-.367-.185-.117-.368-.238-.549-.361-.541-.368-1.064-.761-1.57-1.175-.411-.338-.811-.689-1.198-1.054-.18-.169-.358-.341-.533-.516-.199-.199-.395-.401-.587-.607-.34-.364-.669-.738-.985-1.122-.146-.177-.289-.356-.429-.537-.175-.228-.347-.459-.514-.694-.225-.317-.443-.64-.65-.969-.209-.331-.409-.668-.599-1.01-.154-.279-.302-.562-.444-.848-.219-.444-.423-.897-.609-1.356-.074-.185-.146-.371-.216-.557-.221-.598-.414-1.206-.577-1.822-.159-.596-.29-1.199-.396-1.807-.103-.595-.18-1.195-.234-1.797-.057-.639-.087-1.279-.091-1.92-.006-.717.019-1.435.078-2.149.058-.698.147-1.392.27-2.081.057-.318.121-.634.193-.949.094-.414.2-.824.319-1.231.114-.389.24-.775.377-1.156.088-.244.18-.486.277-.726.273-.677.583-1.339.928-1.982.149-.278.304-.553.466-.824.207-.348.425-.69.653-1.025.402-.595.834-1.169 1.292-1.721.441-.532.906-1.044 1.391-1.536.214-.218.433-.432.655-.642.302-.285.611-.562.928-.831.573-.486 1.169-.944 1.789-1.369.365-.251.739-.491 1.119-.718.308-.183.62-.359.937-.526.364-.191.733-.372 1.107-.541.309-.139.623-.271.939-.395.362-.141.728-.272 1.097-.392.356-.115.714-.221 1.075-.316.698-.185 1.406-.332 2.119-.443.312-.049.626-.091.94-.126.418-.046.838-.081 1.258-.105.307-.017.615-.028.922-.033.183-.003.366-.004.549-.003.16.001.32.003.48.007.486.012.971.037 1.455.078.639.054 1.276.133 1.908.241.584.1 1.163.223 1.736.371.34.088.679.185 1.015.291.22.069.44.143.658.22.446.157.887.331 1.32.52.281.123.56.253.835.389.695.343 1.37.728 2.019 1.151.31.202.615.412.914.631.36.263.712.538 1.055.824.29.242.575.493.853.75.1.092.199.185.297.279.036.035.071.069.106.103l.006.006v-2.485l.001-.01c0-.021 0-.042 0-.063 0-.038.002-.077.004-.115.006-.114.017-.228.034-.342.017-.112.039-.224.067-.334.031-.12.069-.238.113-.354.076-.196.17-.384.283-.562.055-.088.114-.172.178-.255.071-.093.148-.183.23-.27.06-.064.123-.126.188-.186.083-.076.171-.149.262-.217.096-.072.196-.139.299-.201.104-.061.211-.116.32-.165.142-.064.29-.118.439-.161.127-.036.256-.066.385-.088.146-.024.292-.04.44-.048.043-.002.088-.004.131-.005h.076zm47.723 5.606-12.899 15.446 12.911 16.527-.032-.032.006.007c.02.02.04.041.06.062.028.031.056.062.083.094.068.08.131.164.19.252.043.064.083.13.121.197.02.036.039.073.058.11.029.057.056.115.08.174.019.044.036.089.053.134.007.019.013.037.019.056.021.06.04.122.057.183.019.069.036.138.05.208.009.042.016.083.024.125.028.171.045.345.05.519.002.071.003.142.001.213-.001.032-.002.063-.004.095-.001.045-.004.09-.009.135-.005.066-.012.131-.021.196-.016.106-.036.211-.062.315-.003.017-.008.034-.012.05-.008.03-.016.06-.025.09-.024.083-.051.164-.082.244-.022.058-.045.115-.071.172-.086.192-.191.375-.313.546-.084.119-.176.232-.274.34-.042.046-.086.092-.131.136-.044.044-.09.087-.136.129-.075.067-.153.13-.234.191-.091.068-.185.131-.283.19-.068.041-.137.079-.208.115-.132.067-.268.124-.409.172-.117.04-.237.073-.358.099-.117.026-.238.045-.357.058-.118.012-.236.019-.355.02-.151.001-.304-.007-.455-.024-.142-.017-.283-.042-.422-.075-.14-.035-.278-.077-.413-.129-.125-.048-.247-.102-.366-.164-.123-.064-.245-.136-.36-.214-.081-.055-.16-.112-.236-.172-.087-.069-.172-.142-.254-.218-.031-.029-.062-.058-.093-.088-.011-.011-.022-.022-.032-.033l-.038-.04-.036-.042-12.168-15.554-12.172 15.559c-.005.005-.009.011-.015.017-.011.014-.021.027-.032.041-.024.027-.046.053-.07.08-.076.084-.155.164-.24.24-.081.073-.166.142-.255.206-.107.077-.22.148-.337.21-.108.058-.22.11-.335.155-.12.047-.243.087-.368.12-.225.06-.456.096-.688.113-.078.006-.155.01-.231.011-.051.001-.101.002-.151.001-.032-.001-.063-.001-.095-.003-.132-.005-.263-.017-.393-.037-.198-.03-.392-.078-.581-.144-.176-.061-.346-.138-.508-.228-.141-.079-.277-.169-.405-.268-.124-.095-.242-.199-.353-.31-.069-.068-.135-.14-.198-.214-.076-.09-.148-.183-.215-.28-.056-.082-.11-.167-.158-.254-.059-.105-.113-.213-.16-.324-.038-.092-.073-.186-.103-.281-.031-.098-.058-.198-.079-.299-.041-.19-.064-.383-.073-.577-.004-.107-.004-.214.001-.321.008-.155.027-.309.056-.461.019-.101.044-.202.073-.301.02-.067.041-.134.066-.2.052-.147.116-.29.188-.428.076-.147.161-.288.255-.423.032-.046.065-.092.099-.138.016-.02.031-.041.047-.061l13.026-16.57-12.98-15.445.021.022-.006-.007-.007-.007c-.016-.016-.032-.032-.047-.049-.031-.032-.061-.066-.09-.1-.078-.093-.152-.191-.218-.293-.068-.105-.128-.215-.182-.328-.049-.104-.093-.212-.129-.322-.03-.088-.055-.178-.078-.269-.021-.091-.039-.183-.053-.276-.025-.16-.039-.32-.043-.481 0-.024-.001-.047-.001-.07 0-.028-.001-.055 0-.082 0-.045.001-.09.003-.136.005-.111.015-.221.03-.332.02-.14.049-.278.086-.415.042-.153.095-.302.158-.447.046-.101.095-.199.15-.295.054-.096.114-.189.178-.279.066-.093.137-.183.212-.269.055-.063.112-.124.171-.183.129-.128.265-.246.411-.354.055-.04.112-.079.17-.117.096-.061.194-.118.296-.169.12-.061.243-.114.37-.159.129-.046.262-.083.397-.113.121-.026.244-.045.368-.058.117-.013.236-.019.354-.019.154-.001.309.007.462.026.162.02.323.051.481.093.105.028.209.061.311.099.134.05.265.109.391.175.086.044.169.092.251.142.116.073.228.152.336.237.088.068.173.141.255.216.026.024.051.048.076.072.019.019.038.038.057.057l.055.059 12.188 14.529 12.214-14.56.035-.035c.017-.017.033-.033.05-.049.05-.049.102-.096.153-.142.104-.091.212-.177.325-.257.052-.037.106-.073.16-.108.046-.029.093-.058.141-.086.035-.019.069-.038.103-.057.087-.046.175-.089.265-.127.153-.067.312-.122.473-.165.173-.046.349-.079.527-.098.082-.009.165-.015.248-.019.046-.001.091-.002.136-.002h.023.041c.038 0 .077.002.115.003.101.005.201.014.301.027.112.014.225.035.336.061.104.025.206.054.307.089.137.047.27.104.399.169.108.054.212.114.313.18.121.079.238.167.348.261.069.059.136.12.2.184.139.137.267.285.382.442.054.076.106.153.154.233.062.103.119.209.17.319.044.097.084.196.118.297.034.098.063.197.087.298.008.033.015.067.023.1.017.085.031.17.042.256.008.061.015.124.019.186.005.059.007.118.009.177.001.048.001.097.001.145-.001.03-.001.06-.003.09 0 .009 0 .019-.001.029 0 .01-.001.021-.001.031-.001.026-.002.052-.004.078-.005.063-.01.126-.017.188-.001.01-.003.019-.004.029-.002.019-.004.038-.007.057-.006.045-.014.091-.022.136-.01.054-.021.108-.033.162-.016.066-.033.131-.052.195-.011.037-.022.074-.035.111-.023.067-.048.133-.076.199-.038.091-.081.18-.129.267-.06.11-.128.215-.202.316-.057.077-.118.152-.183.222-.017.019-.034.038-.051.056zm-65.975 1.232h-.024l-.168.001c-.092.001-.183.002-.275.005-.231.006-.463.017-.694.033-.59.041-1.178.114-1.759.224-.292.055-.583.119-.872.193-.217.056-.434.116-.649.182-.478.148-.949.321-1.409.521-.406.176-.804.373-1.191.588-.363.202-.716.421-1.06.654-.351.238-.691.492-1.02.76-.15.122-.297.246-.443.374-.174.152-.345.309-.512.468-.104.099-.207.2-.308.301-.129.13-.257.262-.382.396-.201.215-.396.435-.584.66-.077.092-.153.184-.228.278-.057.072-.114.144-.17.217-.098.126-.193.254-.287.384-.114.159-.226.32-.334.483-.273.411-.524.836-.753 1.273-.112.215-.218.433-.319.653-.115.254-.223.51-.323.77-.181.47-.336.95-.464 1.438-.06.226-.114.454-.162.683-.041.195-.078.39-.112.586-.019.112-.036.224-.053.337-.026.181-.049.363-.069.545-.028.254-.049.509-.065.764-.009.153-.016.306-.021.459-.006.175-.009.351-.009.526-.001.187.002.374.008.562.012.405.039.809.082 1.212.025.235.055.469.091.703.02.13.042.26.066.39.014.081.03.162.046.243.055.276.118.552.189.825.038.142.077.284.119.425.053.18.11.358.17.535.095.276.198.549.31.819.169.408.358.808.567 1.198.092.172.187.342.286.51.151.255.31.506.477.751.097.143.196.284.298.423.049.067.099.134.149.2.064.085.129.169.195.252.053.066.105.132.159.197.166.204.338.403.515.598.196.217.398.428.605.634.257.255.521.502.794.74.251.219.509.43.774.633.132.1.266.199.401.295.116.082.233.163.351.242.231.155.467.302.706.443.187.109.377.215.569.315.233.123.47.238.709.346.246.112.495.216.748.312.239.091.48.176.724.254.305.097.614.184.925.26.199.048.399.092.599.132.222.044.444.083.667.117.131.02.263.038.395.054.172.021.343.04.516.056.497.045.997.066 1.497.066s.999-.021 1.497-.066c.541-.05 1.08-.126 1.612-.234.161-.032.322-.067.481-.105.123-.029.246-.06.368-.092.117-.031.235-.064.351-.098.099-.029.198-.059.296-.091.245-.077.488-.162.727-.253.271-.103.539-.215.802-.335.26-.119.517-.245.77-.38.153-.082.305-.166.455-.254.329-.191.65-.396.963-.613.096-.066.191-.134.286-.203.105-.076.208-.154.31-.233.071-.054.141-.108.209-.163.103-.082.205-.165.305-.249.179-.151.356-.305.529-.464.149-.136.297-.276.442-.418.104-.103.208-.208.312-.314.093-.097.185-.195.276-.294.207-.225.409-.457.604-.695.077-.094.154-.19.229-.286.04-.052.079-.103.119-.155.059-.078.117-.157.175-.236.029-.04.058-.08.086-.119.079-.11.156-.221.231-.334.033-.049.066-.099.098-.149.09-.136.177-.275.262-.415.124-.205.242-.413.355-.624.04-.074.079-.149.118-.224.085-.166.166-.334.244-.503.042-.093.085-.187.126-.28.048-.114.096-.229.143-.344.177-.442.331-.894.46-1.352.076-.267.143-.536.202-.807.041-.186.079-.373.113-.561.052-.295.095-.591.13-.889.009-.08.018-.16.026-.24.015-.15.028-.3.038-.451.005-.066.009-.132.014-.198.005-.09.01-.18.013-.27.004-.079.007-.158.008-.237.002-.044.003-.087.004-.131.002-.103.003-.207.003-.311.001-.519-.021-1.039-.069-1.556-.02-.21-.043-.419-.072-.628-.009-.076-.02-.151-.032-.226-.015-.097-.03-.194-.046-.291-.01-.06-.021-.119-.032-.179-.008-.044-.016-.088-.025-.132-.023-.118-.046-.235-.073-.352-.035-.163-.074-.326-.115-.488-.022-.082-.044-.165-.066-.247-.032-.113-.065-.227-.099-.34-.082-.271-.173-.539-.272-.804-.032-.085-.064-.171-.099-.256-.033-.085-.068-.17-.104-.255-.082-.196-.169-.39-.26-.582-.059-.123-.12-.245-.182-.366-.042-.082-.084-.164-.128-.245-.081-.15-.164-.298-.251-.445-.06-.103-.122-.204-.184-.306-.028-.044-.056-.088-.084-.132-.042-.066-.085-.132-.128-.198-.04-.06-.08-.119-.119-.178-.093-.134-.186-.267-.282-.398-.246-.336-.505-.661-.777-.976-.272-.316-.556-.621-.851-.915-.258-.258-.525-.509-.8-.75-.346-.302-.704-.59-1.074-.861-.082-.06-.165-.12-.249-.178-.154-.108-.31-.213-.469-.315-.219-.141-.441-.276-.668-.405-.25-.142-.505-.276-.763-.402-.161-.079-.324-.155-.489-.227-.268-.118-.541-.228-.816-.329-.232-.084-.465-.162-.701-.234-.265-.081-.533-.154-.803-.219-.214-.051-.429-.098-.645-.139-.569-.11-1.145-.185-1.723-.228-.278-.021-.557-.035-.836-.041-.131-.004-.262-.005-.394-.005zm65.975-1.232.001-.001-.022.022z"/><path d="m395.14 267.505 20.36 14.777-6.438 3.848c-.143.075-.239.212-.277.364-.039.151-.007.32.071.452l3.392 5.69-3.095 1.85-3.394-5.679c-.047-.08-.109-.145-.18-.193l-.001-.001c-.019-.013-.04-.025-.06-.036-.003-.001-.005-.002-.007-.003-.047-.025-.098-.042-.15-.053h-.004c-.004-.001-.008-.002-.013-.003h-.001-.001c-.004-.001-.008-.001-.01-.002-.006 0-.01-.001-.016-.002-.127-.015-.263.011-.385.084l-6.439 3.847-.577-4.301-.705-5.236zm2.132 3.251c-.016-.001-.033 0-.05.002-.168.032-.281.178-.26.344l2.403 17.831c.017.128.105.224.222.254.005.001.012.003.018.003l.002.001c.006.001.013.001.021.001l.003.001h.025.053c.169-.032.28-.178.26-.344l-.164-1.218-.717-5.323-1.523-11.29c-.025-.135-.123-.233-.246-.257-.013-.002-.027-.004-.041-.005h-.002zm-87.552-25.272c.713 0 1.335.252 1.87.756.534.505.802 1.113.802 1.826 0 .356-.089.682-.268.979l-15.045 38.011c-.415 1.069-1.215 1.602-2.403 1.602-1.186 0-2.018-.533-2.492-1.602l-12.641-31.958-12.641 31.958c-.415 1.069-1.216 1.602-2.402 1.602-1.188 0-1.989-.533-2.405-1.602l-15.133-38.011c-.118-.357-.178-.683-.178-.979 0-.713.252-1.321.757-1.826.505-.504 1.112-.756 1.824-.756 1.188 0 2.018.534 2.494 1.602l12.641 31.958 12.64-31.958c.414-1.068 1.216-1.602 2.403-1.602s2.018.534 2.493 1.602l12.64 31.958 12.641-31.958c.415-1.068 1.217-1.602 2.403-1.602zm87.016 42.885c-1.193.193-2.424.289-3.694.289-6.588 0-12.018-2.522-16.291-7.566v4.985c0 .712-.252 1.32-.757 1.825-.504.504-1.143.756-1.914.756-.712 0-1.319-.252-1.824-.756-.504-.505-.757-1.113-.757-1.825v-63.026c0-.712.253-1.321.757-1.825.505-.504 1.112-.757 1.824-.757.771 0 1.41.253 1.914.757.505.504.757 1.113.757 1.825v29.999c4.273-5.044 9.703-7.566 16.291-7.566 5.933 0 11.022 2.121 15.265 6.365 4.244 4.244 6.366 9.332 6.366 15.267 0 4.043-.985 7.687-2.954 10.931l-4.266-3.094c1.313-2.339 1.968-4.952 1.968-7.837 0-4.51-1.601-8.368-4.807-11.573-3.204-3.205-7.062-4.807-11.572-4.807-4.511 0-8.355 1.602-11.529 4.807-3.175 3.205-4.762 7.063-4.762 11.573s1.587 8.353 4.762 11.528c3.174 3.174 7.018 4.762 11.529 4.762 1.031 0 2.029-.083 2.992-.249zm-73.752-20.541c.237 4.332 1.928 8.011 5.074 11.038 3.144 3.026 6.884 4.54 11.216 4.54 4.036 0 7.893-1.603 11.573-4.808.653-.474 1.275-.711 1.87-.711.711 0 1.32.252 1.824.757.505.504.757 1.113.757 1.824 0 .654-.237 1.277-.711 1.87-1.782 1.958-4.082 3.502-6.901 4.629-2.818 1.128-5.623 1.691-8.412 1.691-5.935 0-11.008-2.107-15.221-6.32-4.214-4.214-6.321-9.287-6.321-15.222v-1.425c0-.236.059-.712.178-1.424.593-2.789 1.127-4.717 1.603-5.786 1.72-3.976 4.375-7.137 7.967-9.48 3.589-2.344 7.521-3.517 11.794-3.517 5.697 0 10.653 1.869 14.867 5.608s6.438 8.368 6.677 13.887v.267c.059.713-.178 1.32-.713 1.825-.535.504-1.157.757-1.87.757zm16.29-17.092c-3.619 0-6.899 1.113-9.836 3.339-2.939 2.226-4.882 5.059-5.831 8.5h31.424c-.95-3.501-2.893-6.349-5.831-8.545s-6.247-3.294-9.926-3.294z"/></g></svg>